<?xml version="1.0" standalone="no"?>
<!DOCTYPE svg PUBLIC "-//W3C//DTD SVG 20010904//EN"
 "http://www.w3.org/TR/2001/REC-SVG-20010904/DTD/svg10.dtd">
<svg version="1.0" xmlns="http://www.w3.org/2000/svg"
 width="1011.000000pt" height="470.000000pt" viewBox="0 0 1011.000000 470.000000"
 preserveAspectRatio="xMidYMid meet">

<g transform="translate(0.000000,470.000000) scale(0.100000,-0.100000)"
fill="#000000" stroke="none">
<path d="M4095 4491 c-66 -4 -130 -12 -142 -19 -25 -14 -37 -44 -28 -72 5 -17
-4 -25 -58 -51 -134 -63 -229 -194 -283 -386 -22 -76 -32 -638 -15 -753 22
-140 83 -233 188 -285 52 -26 68 -30 153 -30 84 0 102 3 150 27 55 28 216 172
239 216 6 12 27 28 45 36 19 8 37 24 41 35 8 28 30 26 101 -5 43 -20 81 -28
142 -32 80 -4 86 -3 158 33 l76 37 150 -1 c151 -2 151 -2 192 -32 28 -19 59
-32 92 -35 67 -8 183 12 242 42 26 13 48 24 50 24 1 0 65 -60 141 -134 77 -74
159 -146 183 -160 98 -57 221 -68 313 -27 57 26 130 109 171 196 l36 74 -1
346 c-2 394 -9 456 -67 574 -40 82 -131 181 -202 221 -31 17 -46 35 -58 66 -9
23 -29 55 -46 71 l-30 28 -162 -1 c-179 -1 -207 -8 -240 -59 l-20 -30 -446 3
c-245 2 -517 -1 -605 -6 -140 -8 -161 -8 -170 6 -5 9 -24 31 -41 50 -36 41
-58 44 -249 33z m1845 -256 c41 -21 60 -53 60 -101 0 -36 -5 -47 -37 -74 -32
-28 -41 -32 -80 -27 -51 5 -78 26 -93 73 -16 47 3 100 44 125 37 23 67 24 106
4z m-1766 -41 c20 -19 25 -42 28 -124 l3 -65 87 0 c102 0 117 -11 118 -83 0
-35 -6 -49 -29 -73 -27 -27 -35 -29 -105 -29 l-76 0 0 -83 c0 -101 -15 -122
-86 -122 -68 0 -86 25 -92 124 l-5 81 -81 0 c-87 0 -94 2 -119 40 -29 42 -16
110 27 143 6 4 48 5 94 2 l82 -6 0 79 c0 105 19 132 90 132 31 0 54 -6 64 -16z
m647 -156 c5 -7 9 -32 9 -54 0 -49 -18 -68 -65 -68 -48 0 -65 19 -65 70 0 58
21 78 73 71 22 -3 44 -11 48 -19z m237 3 c13 -8 20 -107 8 -118 -2 -3 -23 -7
-45 -10 -54 -7 -71 8 -71 63 0 33 5 46 22 58 24 17 65 21 86 7z m181 -4 c6 -8
12 -36 13 -63 l3 -49 -50 0 -50 0 -3 48 c-2 27 2 55 9 63 15 18 63 18 78 1z
m489 -37 c36 -22 52 -54 52 -105 0 -42 -56 -95 -101 -95 -42 0 -86 25 -104 60
-55 107 49 203 153 140z m475 -4 c49 -45 48 -107 -3 -157 -24 -25 -37 -29 -80
-29 -45 0 -56 4 -80 30 -50 53 -46 106 10 153 43 37 115 38 153 3z m-236 -241
c27 -19 46 -77 38 -115 -18 -84 -147 -94 -199 -16 -26 40 -19 82 22 129 19 22
108 23 139 2z m-1220 -15 c68 -31 139 -104 164 -169 28 -75 21 -139 -24 -228
-28 -56 -42 -71 -85 -95 -101 -57 -205 -46 -316 33 -76 55 -108 111 -114 203
-5 80 2 100 65 187 30 42 43 51 91 65 32 8 62 17 67 19 30 10 115 2 152 -15z
m753 -5 c62 -32 109 -77 135 -129 51 -101 24 -253 -56 -320 -40 -34 -130 -66
-205 -73 -141 -13 -254 94 -271 258 -7 69 7 115 58 190 34 50 44 58 96 73 32
10 63 20 68 22 25 9 143 -5 175 -21z"/>
<path d="M4583 3585 c-29 -21 -63 -77 -63 -106 0 -35 34 -86 70 -104 109 -56
230 34 189 141 -20 52 -69 84 -128 84 -26 0 -56 -7 -68 -15z"/>
<path d="M5333 3606 c-38 -17 -93 -90 -93 -123 0 -97 110 -159 200 -113 41 21
80 71 80 102 0 34 -33 98 -59 117 -38 27 -90 34 -128 17z"/>
<path d="M6786 3880 c-39 -12 -84 -56 -91 -91 -9 -42 11 -94 51 -129 l35 -30
592 0 592 0 37 30 c71 58 68 133 -6 198 l-37 32 -572 -1 c-315 0 -585 -5 -601
-9z"/>
<path d="M6806 3320 c-28 -5 -51 -19 -78 -48 -45 -49 -48 -78 -13 -137 46 -80
4 -75 657 -75 575 0 582 0 612 21 96 66 94 160 -3 226 l-32 22 -552 -1 c-304
-1 -570 -4 -591 -8z"/>
<path d="M2067 3302 c-15 -9 -30 -24 -32 -33 -3 -10 -12 -20 -20 -23 -20 -7
-19 -36 3 -53 9 -8 11 -12 5 -8 -17 8 -17 -27 -1 -43 9 -9 9 -12 0 -12 -10 0
-10 -5 -2 -20 6 -11 15 -18 19 -15 5 3 11 -2 15 -10 3 -8 11 -15 18 -15 10 0
9 3 -1 9 -12 8 -12 14 -3 33 11 21 12 21 7 2 -6 -24 14 -37 40 -28 8 4 15 1
15 -5 0 -6 -6 -11 -12 -11 -8 0 -7 -4 3 -10 8 -5 24 -7 35 -5 10 2 27 4 37 4
11 1 15 6 11 13 -5 8 0 9 14 6 21 -6 29 2 15 15 -3 4 -16 1 -27 -6 -12 -8 -34
-17 -51 -20 -16 -3 -24 -4 -17 -1 6 3 12 9 12 14 0 9 -39 25 -52 22 -5 -1 -8
9 -8 23 0 22 4 25 35 25 24 0 35 -5 35 -15 0 -8 -5 -15 -11 -15 -6 0 -9 -6 -6
-12 2 -7 10 -12 16 -10 7 1 10 -2 6 -8 -3 -5 -2 -10 4 -10 15 0 31 35 31 69 0
33 3 35 65 32 33 -1 37 0 22 9 -21 13 -13 30 14 30 10 0 19 7 19 15 0 11 11
15 41 15 29 0 38 3 33 13 -4 6 -3 9 1 4 5 -4 7 -32 6 -62 -2 -50 0 -55 18 -55
12 0 21 -4 21 -10 0 -5 12 -7 28 -4 22 4 29 1 37 -18 9 -21 18 -24 100 -29
l90 -5 -92 -2 c-57 -1 -93 2 -93 8 0 6 -15 10 -32 9 -28 0 -30 -2 -13 -9 19
-8 19 -9 -3 -9 -13 -1 -20 -5 -17 -11 4 -6 149 -9 386 -9 237 0 377 3 374 9
-3 6 1 7 9 4 9 -3 16 -1 16 6 0 6 5 8 10 5 6 -3 10 -1 10 5 0 6 5 8 10 5 6 -3
10 1 10 9 0 9 3 16 8 16 12 0 27 44 23 70 -3 23 -4 24 -12 5 l-9 -20 4 20 c2
11 7 29 12 39 5 14 4 17 -4 12 -8 -4 -10 -2 -6 7 5 15 -15 40 -45 57 -11 5
-242 9 -582 9 -508 0 -567 -2 -592 -17z m269 -7 c50 5 65 4 54 -4 -17 -12
-121 -14 -159 -4 -23 6 -23 7 -5 13 10 4 24 3 30 -2 7 -5 43 -6 80 -3z m-81
-33 c-3 -3 -11 0 -18 7 -9 10 -8 11 6 5 10 -3 15 -9 12 -12z m-31 -8 c21 -8
21 -24 0 -24 -8 0 -12 5 -9 10 3 6 1 10 -4 10 -6 0 -11 -7 -11 -15 0 -9 -6
-12 -16 -8 -15 6 -15 8 2 20 21 15 18 15 38 7z m-194 -28 c0 -3 -4 -8 -10 -11
-5 -3 -10 -1 -10 4 0 6 5 11 10 11 6 0 10 -2 10 -4z m768 -143 c-15 -2 -42 -2
-60 0 -18 2 -6 4 27 4 33 0 48 -2 33 -4z"/>
<path d="M2464 2566 c-194 -52 -320 -148 -420 -323 -76 -133 -102 -317 -73
-506 16 -101 43 -169 106 -265 154 -234 449 -340 755 -272 119 26 195 58 298
127 72 47 89 64 94 89 12 59 5 545 -7 549 -7 3 -133 1 -282 -3 l-270 -7 -6
-140 c-3 -77 -3 -146 -1 -153 4 -11 28 -12 118 -6 l114 7 0 -57 0 -57 -46 -20
c-154 -68 -361 -38 -471 69 -77 75 -112 205 -93 349 14 103 20 119 70 186 69
92 173 139 305 138 117 0 174 -24 272 -113 24 -21 48 -38 54 -38 6 0 57 44
112 97 56 53 106 100 111 105 18 15 -135 151 -214 191 -105 53 -167 67 -310
73 -110 4 -136 1 -216 -20z"/>
<path d="M4040 2563 c-51 -9 -43 -22 11 -17 62 6 49 -10 -17 -20 -23 -3 -54
-13 -70 -21 -16 -8 -35 -15 -41 -15 -7 0 -13 -5 -13 -10 0 -6 -11 -8 -25 -4
-19 5 -31 -1 -54 -26 -25 -28 -111 -77 -111 -64 0 3 -10 -1 -22 -8 -13 -7 -27
-11 -33 -9 -5 1 -7 -1 -3 -5 4 -4 3 -13 -3 -20 -7 -8 -6 -14 2 -20 8 -5 9 -3
4 6 -6 9 -4 11 4 6 13 -9 8 -19 -12 -22 -7 -1 -16 -3 -22 -4 -22 -5 -36 1 -29
12 4 7 3 8 -4 4 -6 -4 -9 -13 -6 -20 3 -7 -2 -16 -10 -19 -9 -4 -16 -12 -16
-19 0 -9 3 -9 11 2 9 13 10 13 6 0 -2 -8 -10 -15 -18 -15 -18 0 -82 -123 -105
-201 -27 -92 -24 -297 6 -389 60 -189 168 -319 331 -399 166 -81 312 -103 459
-68 156 37 269 103 388 225 l54 55 -89 61 c-48 34 -107 75 -130 92 l-41 31
-36 -39 c-70 -79 -203 -129 -318 -121 -128 10 -237 84 -298 204 -22 43 -25 64
-27 159 -2 138 11 211 43 232 13 8 24 20 24 27 0 6 9 17 20 24 11 7 20 19 20
28 0 8 4 13 9 9 6 -3 8 4 6 15 -3 16 1 20 21 20 16 0 24 6 24 18 0 11 3 13 8
5 6 -9 18 -8 52 4 28 10 77 16 130 16 69 0 97 -5 150 -27 61 -25 185 -117 174
-129 -3 -3 2 -4 13 -2 10 2 21 4 26 4 13 2 77 73 72 81 -3 4 3 14 12 21 9 8
17 12 17 10 2 -8 46 11 46 20 0 5 5 9 11 9 6 0 17 7 25 15 14 13 13 19 -5 48
-11 17 -39 51 -63 74 -47 45 -176 125 -190 117 -4 -3 -8 -2 -8 3 0 9 -31 24
-99 48 -42 14 -198 19 -261 8z"/>
<path d="M6614 2561 c-2 -2 -4 -300 -4 -662 0 -611 1 -658 18 -677 15 -18 32
-21 144 -25 70 -2 133 0 140 4 10 6 13 43 13 141 0 73 1 241 3 373 l3 240 24
-30 c14 -16 87 -115 162 -218 75 -104 145 -193 154 -198 20 -10 99 -12 123 -3
9 3 41 43 73 88 31 44 91 124 133 176 42 52 88 113 103 134 l26 40 3 -358 c3
-341 4 -358 22 -372 23 -16 281 -21 291 -5 7 12 7 1343 0 1350 -3 3 -65 6
-138 8 l-132 4 -19 -33 c-11 -18 -47 -68 -81 -113 -64 -83 -282 -418 -321
-493 l-23 -43 -50 83 c-92 154 -205 332 -293 462 l-87 130 -141 1 c-78 0 -143
-1 -146 -4z"/>
<path d="M4907 2553 c-4 -3 -7 -302 -7 -664 0 -584 2 -659 16 -673 12 -13 41
-16 148 -16 89 0 136 4 144 12 9 9 12 105 12 371 0 400 -4 382 64 291 174
-230 220 -293 238 -325 23 -41 40 -49 110 -49 52 0 62 7 113 84 19 28 49 72
67 97 46 63 209 259 217 259 3 0 5 -160 3 -356 -3 -264 0 -359 9 -370 9 -11
42 -14 154 -14 121 0 144 2 149 16 3 9 6 315 6 680 l0 664 -139 0 -139 0 -74
-97 c-41 -54 -98 -138 -127 -188 -86 -145 -233 -375 -241 -375 -3 0 -53 75
-111 166 -57 91 -129 205 -159 253 -51 81 -120 182 -153 224 -12 15 -33 17
-154 17 -77 0 -143 -3 -146 -7z"/>
<path d="M3623 2325 c0 -8 4 -12 9 -9 5 3 6 10 3 15 -9 13 -12 11 -12 -6z"/>
<path d="M6090 618 c-109 -247 -124 -290 -107 -307 6 -6 34 -11 62 -11 l51 0
21 49 21 50 97 3 98 3 15 -35 c27 -58 41 -70 88 -70 55 0 74 8 74 30 0 10 -22
69 -48 131 -27 63 -73 172 -103 243 -57 137 -66 146 -133 146 l-33 0 -103
-232z m163 25 c3 -10 16 -44 31 -75 l26 -58 -64 0 -64 0 26 75 c28 77 36 88
45 58z"/>
<path d="M3583 832 c-10 -6 -14 -71 -15 -256 -3 -235 -2 -248 16 -262 26 -18
66 -18 94 2 19 13 22 24 22 75 l0 59 53 0 c70 0 148 24 188 57 36 31 68 94 69
136 0 38 -26 96 -58 131 -50 53 -93 66 -232 66 -69 0 -131 -4 -137 -8z m269
-142 c24 -30 23 -53 -4 -85 -18 -20 -35 -27 -79 -32 l-56 -5 -7 32 c-3 18 -6
50 -6 71 0 43 13 50 90 44 31 -2 50 -10 62 -25z"/>
<path d="M4257 758 c-117 -266 -177 -412 -177 -427 0 -17 98 -45 117 -33 6 4
21 29 32 55 l20 47 109 0 108 0 21 -50 c18 -42 26 -50 50 -52 69 -3 103 9 103
40 0 18 -98 238 -176 395 l-54 107 -59 0 -58 0 -36 -82z m123 -160 c17 -35 30
-69 30 -75 0 -9 -19 -13 -61 -13 -33 0 -59 3 -57 8 2 4 14 38 28 75 14 37 26
67 28 67 1 0 16 -28 32 -62z"/>
<path d="M4720 771 l0 -69 80 5 80 6 0 -187 c0 -173 1 -187 20 -206 27 -27 85
-27 100 -1 6 12 10 96 10 205 l0 186 70 0 c77 0 90 10 90 69 0 63 9 61 -231
61 l-219 0 0 -69z"/>
<path d="M5338 588 c3 -284 4 -288 73 -288 53 0 60 18 62 161 1 65 4 118 7
117 13 -6 111 -120 165 -192 60 -80 85 -94 132 -79 l28 10 5 249 c3 137 3 255
1 262 -2 8 -23 12 -61 12 l-58 0 -7 -136 -7 -135 -24 22 c-14 13 -63 74 -111
136 l-86 113 -61 0 -61 0 3 -252z"/>
<path d="M2184 713 c-119 -4 -121 -4 -149 -33 -39 -41 -36 -76 9 -117 l37 -34
574 3 574 3 30 29 c51 49 39 115 -24 142 -28 11 -115 14 -482 12 -246 -1 -502
-4 -569 -5z"/>
<path d="M6785 713 c-32 -8 -65 -44 -65 -71 0 -30 35 -88 60 -102 12 -6 238
-10 605 -10 l587 0 34 34 c19 19 34 41 34 50 0 28 -27 71 -52 83 -23 12 -1160
27 -1203 16z"/>
</g>
</svg>
